<?xml version="1.0" encoding="utf-8"?>
<!-- Generator: Adobe Illustrator 24.2.3, SVG Export Plug-In . SVG Version: 6.00 Build 0)  -->
<svg version="1.1" id="Objects" xmlns="http://www.w3.org/2000/svg" xmlns:xlink="http://www.w3.org/1999/xlink" x="0px" y="0px"
	 viewBox="0 0 142.31 142.67" style="enable-background:new 0 0 142.31 142.67;" xml:space="preserve">
<style type="text/css">
	.st0{fill:#F8DC4A;}
	.st1{fill:none;stroke:#F2C341;stroke-width:1.9286;stroke-linecap:round;stroke-linejoin:round;stroke-dasharray:1.9305,5.7916;}
	.st2{fill:#C99204;}
	.st3{fill:#DEA004;}
</style>
<circle class="st0" cx="71.06" cy="70.95" r="67.02"/>
<g>
	<circle class="st1" cx="71.06" cy="70.95" r="61.46"/>
</g>
<ellipse transform="matrix(0.9875 -0.1574 0.1574 0.9875 -10.2839 12.0722)" class="st2" cx="71.06" cy="70.95" rx="56.11" ry="56.11"/>
<ellipse transform="matrix(0.2246 -0.9745 0.9745 0.2246 -14.0369 124.2653)" class="st3" cx="71.06" cy="70.95" rx="53.64" ry="53.64"/>
<g>
	<path class="st2" d="M93.61,84.23H74.2v-5.31h15.92c3.56,0,6.45-2.89,6.45-6.45V35.27c0-3.01-2.45-5.47-5.46-5.47
		c-3.01,0-5.47,2.45-5.47,5.47V68H51.83V35.22c0-3.01-2.45-5.47-5.47-5.47c-3.01,0-5.46,2.45-5.46,5.47v37.26
		c0,3.56,2.89,6.45,6.45,6.45h15.92v5.31H43.85c-2.82,0-5.11,2.29-5.11,5.11s2.29,5.11,5.11,5.11h19.41v5.44h-1.79
		c-1.08,0-1.96,0.88-1.96,1.96v9.07c0,1.08,0.88,1.96,1.96,1.96h14.5c1.08,0,1.96-0.88,1.96-1.96v-9.07c0-1.08-0.88-1.96-1.96-1.96
		H74.2v-5.44h19.41c2.82,0,5.11-2.29,5.11-5.11S96.43,84.23,93.61,84.23z"/>
	<path class="st0" d="M96.18,81.92H76.77v-5.31h15.92c3.56,0,6.45-2.89,6.45-6.45V32.96c0-3.01-2.45-5.47-5.46-5.47
		c-3.01,0-5.47,2.45-5.47,5.47v32.73H54.4V32.91c0-3.01-2.45-5.47-5.47-5.47c-3.01,0-5.46,2.45-5.46,5.47v37.26
		c0,3.56,2.89,6.45,6.45,6.45h15.92v5.31H46.42c-2.82,0-5.11,2.29-5.11,5.11s2.29,5.11,5.11,5.11h19.41v5.44h-1.79
		c-1.08,0-1.96,0.88-1.96,1.96v9.07c0,1.08,0.88,1.96,1.96,1.96h14.5c1.08,0,1.96-0.88,1.96-1.96v-9.07c0-1.08-0.88-1.96-1.96-1.96
		h-1.79v-5.44h19.41c2.82,0,5.11-2.29,5.11-5.11S99,81.92,96.18,81.92z"/>
</g>
</svg>
